<svg width="15" height="20" viewBox="0 0 15 20" fill="none" xmlns="http://www.w3.org/2000/svg">
<path d="M10.7504 4.46154C10.7504 5.37959 10.408 6.26005 9.7984 6.90921C9.18883 7.55837 8.36207 7.92307 7.5 7.92307C6.63793 7.92307 5.81117 7.55837 5.2016 6.90921C4.59202 6.26005 4.24957 5.37959 4.24957 4.46154C4.24957 3.54348 4.59202 2.66302 5.2016 2.01386C5.81117 1.3647 6.63793 1 7.5 1C8.36207 1 9.18883 1.3647 9.7984 2.01386C10.408 2.66302 10.7504 3.54348 10.7504 4.46154ZM1 17.4935C1.02785 15.6772 1.72492 13.9454 2.94088 12.6714C4.15684 11.3975 5.79425 10.6835 7.5 10.6835C9.20575 10.6835 10.8432 11.3975 12.0591 12.6714C13.2751 13.9454 13.9721 15.6772 14 17.4935C11.9608 18.4893 9.74336 19.0032 7.5 19C5.18049 19 2.97886 18.4609 1 17.4935Z" stroke="black" stroke-width="1.2" stroke-linecap="round" stroke-linejoin="round"/>
</svg>
